<svg width="32" height="32" viewBox="0 0 32 32" fill="none" xmlns="http://www.w3.org/2000/svg">
<rect width="32" height="32" fill="black"/>
<path fill-rule="evenodd" clip-rule="evenodd" d="M17.0746 5C17.3646 5 17.5996 5.23505 17.5996 5.525V6.575C17.5996 6.86495 17.3646 7.1 17.0746 7.1L13.3996 7.1V5.525C13.3996 5.23505 13.6347 5 13.9246 5H17.0746ZM13.3996 9.2V7.1L11.8246 7.1C11.5347 7.1 11.2996 7.33505 11.2996 7.625V9.2H9.72461C9.43466 9.2 9.19961 9.43505 9.19961 9.725L9.19961 11.3H7.62461C7.33466 11.3 7.09961 11.5351 7.09961 11.825V14.975C7.09961 15.2649 7.33466 15.5 7.62461 15.5H9.19961V17.075C9.19961 17.3649 9.43466 17.6 9.72461 17.6H11.2996V19.175C11.2996 19.4649 11.5347 19.7 11.8246 19.7H13.3996V21.275C13.3996 21.5649 13.6347 21.8 13.9246 21.8H17.5996V23.9H13.9246C13.6347 23.9 13.3996 24.135 13.3996 24.425V25.475C13.3996 25.7649 13.6347 26 13.9246 26H17.0746C17.3646 26 17.5996 25.7649 17.5996 25.475V23.9H19.1746C19.4646 23.9 19.6996 23.6649 19.6996 23.375V21.8H21.2746C21.5646 21.8 21.7996 21.5649 21.7996 21.275V19.7H23.3746C23.6646 19.7 23.8996 19.4649 23.8996 19.175V16.025C23.8996 15.7351 23.6646 15.5 23.3746 15.5H21.7996V13.925C21.7996 13.6351 21.5646 13.4 21.2746 13.4H19.6996V11.825C19.6996 11.5351 19.4646 11.3 19.1746 11.3H17.5996V9.725C17.5996 9.43505 17.3646 9.2 17.0746 9.2H13.3996ZM13.3996 11.3V9.2H11.2996V11.3H9.19961L9.19961 15.5H10.7746C11.0646 15.5 11.2996 15.7351 11.2996 16.025V17.6H12.8746C13.1646 17.6 13.3996 17.835 13.3996 18.125V19.7H17.5996V21.8H19.6996V19.7H21.7996V15.5H20.2246C19.9347 15.5 19.6996 15.2649 19.6996 14.975V13.4H18.1246C17.8347 13.4 17.5996 13.1649 17.5996 12.875V11.3H13.3996ZM19.6996 19.7H17.5996V18.125C17.5996 17.835 17.8347 17.6 18.1246 17.6H19.1746C19.4646 17.6 19.6996 17.835 19.6996 18.125V19.7ZM13.3996 11.3H11.2996V12.875C11.2996 13.1649 11.5347 13.4 11.8246 13.4H12.8746C13.1646 13.4 13.3996 13.1649 13.3996 12.875V11.3ZM14.4496 14.975C14.4496 14.6851 14.6847 14.45 14.9746 14.45H16.0246C16.3146 14.45 16.5496 14.6851 16.5496 14.975V16.025C16.5496 16.3149 16.3146 16.55 16.0246 16.55H14.9746C14.6847 16.55 14.4496 16.3149 14.4496 16.025V14.975Z" fill="#EEECDF"/>
</svg>
